<mxfile host="app.diagrams.net" modified="2024-01-10T21:23:18.900Z" agent="Mozilla/5.0 (Windows NT 10.0; Win64; x64) AppleWebKit/537.36 (KHTML, like Gecko) Chrome/119.0.0.0 Safari/537.36 OPR/105.0.0.0 (Edition Yx GX)" version="22.1.18" etag="xQ1J3P8Ah1zT_p-QHE2q" type="github">
  <diagram name="Страница — 1" id="nhb3QOoLI5Laz23w1xsH">
    <mxGraphModel>
      <root>
        <mxCell id="0" />
        <mxCell id="1" parent="0" />
      </root>
    </mxGraphModel>
  </diagram>
</mxfile>
